<svg width="16" height="16" viewBox="0 0 16 16" fill="none" xmlns="http://www.w3.org/2000/svg">
<g clip-path="url(#clip0_0_34)">
<path d="M6.0633 9.38939C5.56599 8.94803 5.26328 8.34827 5.26328 7.67547C5.26328 6.32756 6.4845 5.24108 7.99979 5.24108C8.74965 5.24108 9.43984 5.51097 9.9285 5.95233" stroke="#808194" stroke-width="0.666667" stroke-linecap="round" stroke-linejoin="round"/>
<path d="M10.6854 8.10688C10.4848 9.09879 9.60604 9.88155 8.4912 10.0615" stroke="#808194" stroke-width="0.666667" stroke-linecap="round" stroke-linejoin="round"/>
<path d="M3.37694 11.7772C2.00436 10.8192 0.841947 9.41974 -0.000457764 7.67506C0.850596 5.9227 2.02079 4.51558 3.40203 3.54982C4.77461 2.58406 6.35823 2.05966 7.99979 2.05966C9.65087 2.05966 11.2336 2.59175 12.6149 3.56443" stroke="#808194" stroke-width="0.666667" stroke-linecap="round" stroke-linejoin="round"/>
<path d="M14.4415 5.25567C15.0366 5.95846 15.5598 6.76967 16 7.67469C14.2988 11.1786 11.2924 13.2893 7.9998 13.2893C7.2534 13.2893 6.51737 13.1817 5.80989 12.9718" stroke="#808194" stroke-width="0.666667" stroke-linecap="round" stroke-linejoin="round"/>
<path d="M14.8216 1.61008L1.17876 13.739" stroke="#808194" stroke-width="0.666667" stroke-linecap="round" stroke-linejoin="round"/>
</g>
<defs>
<clipPath id="clip0_0_34">
<rect width="16" height="16" fill="white"/>
</clipPath>
</defs>
</svg>
